<svg width="1091" height="136" viewBox="0 0 1091 136" fill="none" xmlns="http://www.w3.org/2000/svg">
<path d="M281.27 94.44C276.598 94.44 272.342 93.672 268.502 92.136C264.662 90.6 261.366 88.36 258.614 85.416C255.862 82.472 253.718 78.856 252.182 74.568C250.71 70.216 249.974 65.256 249.974 59.688C249.974 54.12 250.806 49.192 252.47 44.904C254.198 40.552 256.502 36.904 259.382 33.96C262.262 31.016 265.622 28.776 269.462 27.24C273.302 25.704 277.398 24.936 281.75 24.936C284.502 24.936 286.966 25.128 289.142 25.512C291.382 25.896 293.302 26.344 294.902 26.856C296.566 27.368 297.91 27.88 298.934 28.392C299.958 28.904 300.662 29.288 301.046 29.544L298.358 37.224C297.782 36.84 296.95 36.424 295.862 35.976C294.774 35.528 293.526 35.08 292.118 34.632C290.774 34.184 289.27 33.832 287.606 33.576C286.006 33.256 284.374 33.096 282.71 33.096C279.19 33.096 276.022 33.704 273.206 34.92C270.39 36.136 267.99 37.896 266.006 40.2C264.022 42.504 262.486 45.32 261.398 48.648C260.374 51.912 259.862 55.592 259.862 59.688C259.862 63.656 260.31 67.272 261.206 70.536C262.166 73.8 263.574 76.616 265.43 78.984C267.286 81.288 269.59 83.08 272.342 84.36C275.158 85.64 278.422 86.28 282.134 86.28C286.422 86.28 289.974 85.832 292.79 84.936C295.606 84.04 297.718 83.24 299.126 82.536L301.526 90.216C301.078 90.536 300.278 90.952 299.126 91.464C297.974 91.912 296.534 92.36 294.806 92.808C293.078 93.256 291.062 93.64 288.758 93.96C286.454 94.28 283.958 94.44 281.27 94.44ZM312.194 93V26.472H352.802V34.44H321.506V54.216H349.346V61.992H321.506V85.032H355.202V93H312.194ZM399.581 65.16C400.605 66.44 401.885 68.136 403.421 70.248C405.021 72.296 406.653 74.6 408.317 77.16C409.981 79.656 411.613 82.28 413.213 85.032C414.877 87.784 416.285 90.44 417.437 93H407.261C405.981 90.568 404.573 88.104 403.037 85.608C401.565 83.112 400.061 80.744 398.525 78.504C396.989 76.2 395.453 74.056 393.917 72.072C392.445 70.088 391.101 68.36 389.885 66.888C389.053 66.952 388.189 66.984 387.293 66.984C386.461 66.984 385.597 66.984 384.701 66.984H376.349V93H367.037V27.432C369.661 26.792 372.573 26.376 375.773 26.184C379.037 25.928 382.013 25.8 384.701 25.8C394.045 25.8 401.149 27.56 406.013 31.08C410.941 34.6 413.405 39.848 413.405 46.824C413.405 51.24 412.221 55.016 409.853 58.152C407.549 61.288 404.125 63.624 399.581 65.16ZM385.469 33.96C381.501 33.96 378.461 34.056 376.349 34.248V59.304H382.973C386.173 59.304 389.053 59.144 391.613 58.824C394.173 58.504 396.317 57.896 398.045 57C399.837 56.104 401.213 54.856 402.173 53.256C403.133 51.592 403.613 49.416 403.613 46.728C403.613 44.232 403.133 42.152 402.173 40.488C401.213 38.824 399.901 37.512 398.237 36.552C396.637 35.592 394.717 34.92 392.477 34.536C390.301 34.152 387.965 33.96 385.469 33.96ZM471.86 26.472V34.536H450.932V93H441.62V34.536H420.692V26.472H471.86ZM481.694 26.472H491.006V93H481.694V26.472ZM507.475 93V26.472H547.603V34.44H516.787V54.504H544.147V62.376H516.787V93H507.475ZM559.037 26.472H568.349V93H559.037V26.472ZM613.427 94.44C608.755 94.44 604.499 93.672 600.659 92.136C596.819 90.6 593.523 88.36 590.771 85.416C588.019 82.472 585.875 78.856 584.339 74.568C582.867 70.216 582.131 65.256 582.131 59.688C582.131 54.12 582.963 49.192 584.627 44.904C586.355 40.552 588.659 36.904 591.539 33.96C594.419 31.016 597.779 28.776 601.619 27.24C605.459 25.704 609.555 24.936 613.907 24.936C616.659 24.936 619.123 25.128 621.299 25.512C623.539 25.896 625.459 26.344 627.059 26.856C628.723 27.368 630.067 27.88 631.091 28.392C632.115 28.904 632.819 29.288 633.203 29.544L630.515 37.224C629.939 36.84 629.107 36.424 628.019 35.976C626.931 35.528 625.683 35.08 624.275 34.632C622.931 34.184 621.427 33.832 619.763 33.576C618.163 33.256 616.531 33.096 614.867 33.096C611.347 33.096 608.179 33.704 605.363 34.92C602.547 36.136 600.147 37.896 598.163 40.2C596.179 42.504 594.643 45.32 593.555 48.648C592.531 51.912 592.019 55.592 592.019 59.688C592.019 63.656 592.467 67.272 593.363 70.536C594.323 73.8 595.731 76.616 597.587 78.984C599.443 81.288 601.747 83.08 604.499 84.36C607.315 85.64 610.579 86.28 614.291 86.28C618.579 86.28 622.131 85.832 624.947 84.936C627.763 84.04 629.875 83.24 631.283 82.536L633.683 90.216C633.235 90.536 632.435 90.952 631.283 91.464C630.131 91.912 628.691 92.36 626.963 92.808C625.235 93.256 623.219 93.64 620.915 93.96C618.611 94.28 616.115 94.44 613.427 94.44ZM690.954 93C689.866 90.12 688.842 87.304 687.882 84.552C686.922 81.736 685.93 78.888 684.906 76.008H654.762L648.714 93H639.018C641.578 85.96 643.978 79.464 646.218 73.512C648.458 67.496 650.634 61.8 652.746 56.424C654.922 51.048 657.066 45.928 659.178 41.064C661.29 36.136 663.498 31.272 665.802 26.472H674.346C676.65 31.272 678.858 36.136 680.97 41.064C683.082 45.928 685.194 51.048 687.306 56.424C689.482 61.8 691.69 67.496 693.93 73.512C696.17 79.464 698.57 85.96 701.13 93H690.954ZM682.218 68.328C680.17 62.76 678.122 57.384 676.074 52.2C674.09 46.952 672.01 41.928 669.834 37.128C667.594 41.928 665.45 46.952 663.402 52.2C661.418 57.384 659.434 62.76 657.45 68.328H682.218ZM748.423 26.472V34.536H727.495V93H718.183V34.536H697.255V26.472H748.423ZM758.256 93V26.472H798.864V34.44H767.568V54.216H795.408V61.992H767.568V85.032H801.264V93H758.256ZM828.556 86.376C838.284 86.376 843.148 83.048 843.148 76.392C843.148 74.344 842.7 72.616 841.804 71.208C840.972 69.736 839.82 68.488 838.348 67.464C836.876 66.376 835.18 65.448 833.26 64.68C831.404 63.912 829.42 63.144 827.308 62.376C824.876 61.544 822.572 60.616 820.396 59.592C818.22 58.504 816.332 57.256 814.732 55.848C813.132 54.376 811.852 52.648 810.892 50.664C809.996 48.68 809.548 46.28 809.548 43.464C809.548 37.64 811.532 33.096 815.5 29.832C819.468 26.568 824.94 24.936 831.916 24.936C835.948 24.936 839.596 25.384 842.86 26.28C846.188 27.112 848.62 28.04 850.156 29.064L847.18 36.648C845.836 35.816 843.82 35.016 841.132 34.248C838.508 33.416 835.436 33 831.916 33C830.124 33 828.46 33.192 826.924 33.576C825.388 33.96 824.044 34.536 822.892 35.304C821.74 36.072 820.812 37.064 820.108 38.28C819.468 39.432 819.148 40.808 819.148 42.408C819.148 44.2 819.5 45.704 820.204 46.92C820.908 48.136 821.9 49.224 823.18 50.184C824.46 51.08 825.932 51.912 827.596 52.68C829.324 53.448 831.212 54.216 833.26 54.984C836.14 56.136 838.764 57.288 841.132 58.44C843.564 59.592 845.644 60.968 847.372 62.568C849.164 64.168 850.54 66.088 851.5 68.328C852.46 70.504 852.94 73.16 852.94 76.296C852.94 82.12 850.796 86.6 846.508 89.736C842.284 92.872 836.3 94.44 828.556 94.44C825.932 94.44 823.5 94.248 821.26 93.864C819.084 93.544 817.132 93.16 815.404 92.712C813.676 92.2 812.172 91.688 810.892 91.176C809.676 90.6 808.716 90.12 808.012 89.736L810.796 82.056C812.268 82.888 814.508 83.816 817.516 84.84C820.524 85.864 824.204 86.376 828.556 86.376Z" fill="black"/>
<line x1="1" y1="2" x2="1" y2="136" stroke="black" stroke-width="2"/>
<line x1="1090" y1="2" x2="1090" y2="136" stroke="black" stroke-width="2"/>
<line y1="135" x2="1089" y2="135" stroke="black" stroke-width="2"/>
<line y1="1" x2="1089" y2="1" stroke="black" stroke-width="2"/>
</svg>
