<svg width="1094" height="112" viewBox="0 0 1094 112" fill="none" xmlns="http://www.w3.org/2000/svg">
<path d="M57.504 26.472C55.52 28.648 53.28 31.08 50.784 33.768C48.288 36.392 45.664 39.112 42.912 41.928C40.224 44.68 37.536 47.4 34.848 50.088C32.16 52.776 29.632 55.272 27.264 57.576C30.016 59.496 32.928 61.864 36 64.68C39.072 67.496 42.08 70.504 45.024 73.704C47.968 76.904 50.72 80.168 53.28 83.496C55.904 86.824 58.08 89.992 59.808 93H48.864C46.944 89.992 44.736 86.984 42.24 83.976C39.744 80.904 37.088 77.992 34.272 75.24C31.52 72.424 28.704 69.832 25.824 67.464C23.008 65.096 20.256 63.08 17.568 61.416V93H8.256V26.472H17.568V55.848C19.808 53.736 22.272 51.368 24.96 48.744C27.648 46.056 30.304 43.368 32.928 40.68C35.552 37.992 38.016 35.432 40.32 33C42.688 30.504 44.672 28.328 46.272 26.472H57.504ZM114.231 93C112.823 90.632 111.191 87.976 109.335 85.032C107.543 82.088 105.591 79.048 103.479 75.912C101.367 72.712 99.159 69.48 96.855 66.216C94.615 62.952 92.375 59.816 90.135 56.808C87.895 53.736 85.719 50.856 83.607 48.168C81.495 45.48 79.543 43.112 77.751 41.064V93H68.631V26.472H76.023C79.031 29.672 82.231 33.416 85.623 37.704C89.079 41.928 92.471 46.312 95.799 50.856C99.191 55.336 102.359 59.752 105.303 64.104C108.311 68.456 110.839 72.328 112.887 75.72V26.472H122.007V93H114.231ZM135.787 59.688C135.787 53.992 136.619 48.968 138.283 44.616C140.011 40.264 142.315 36.648 145.195 33.768C148.139 30.824 151.531 28.616 155.371 27.144C159.275 25.672 163.403 24.936 167.755 24.936C172.043 24.936 176.075 25.672 179.851 27.144C183.691 28.616 187.051 30.824 189.931 33.768C192.811 36.648 195.083 40.264 196.747 44.616C198.475 48.968 199.339 53.992 199.339 59.688C199.339 65.384 198.475 70.408 196.747 74.76C195.083 79.112 192.811 82.76 189.931 85.704C187.051 88.584 183.691 90.76 179.851 92.232C176.075 93.704 172.043 94.44 167.755 94.44C163.403 94.44 159.275 93.704 155.371 92.232C151.531 90.76 148.139 88.584 145.195 85.704C142.315 82.76 140.011 79.112 138.283 74.76C136.619 70.408 135.787 65.384 135.787 59.688ZM145.579 59.688C145.579 63.72 146.091 67.4 147.115 70.728C148.139 73.992 149.579 76.776 151.435 79.08C153.355 81.384 155.659 83.176 158.347 84.456C161.099 85.672 164.171 86.28 167.563 86.28C170.955 86.28 173.995 85.672 176.683 84.456C179.371 83.176 181.643 81.384 183.499 79.08C185.419 76.776 186.891 73.992 187.915 70.728C188.939 67.4 189.451 63.72 189.451 59.688C189.451 55.656 188.939 52.008 187.915 48.744C186.891 45.416 185.419 42.6 183.499 40.296C181.643 37.992 179.371 36.232 176.683 35.016C173.995 33.736 170.955 33.096 167.563 33.096C164.171 33.096 161.099 33.736 158.347 35.016C155.659 36.232 153.355 37.992 151.435 40.296C149.579 42.6 148.139 45.416 147.115 48.744C146.091 52.008 145.579 55.656 145.579 59.688ZM248.078 47.88C245.39 56.456 242.67 64.392 239.918 71.688C237.166 78.984 234.414 86.088 231.661 93H222.35C218.958 83.208 215.95 72.872 213.326 61.992C210.766 51.112 208.366 39.272 206.126 26.472H215.918C216.814 31.464 217.742 36.456 218.702 41.448C219.662 46.44 220.654 51.304 221.678 56.04C222.702 60.712 223.726 65.192 224.75 69.48C225.774 73.768 226.83 77.736 227.918 81.384C230.478 74.664 233.198 67.304 236.078 59.304C238.958 51.24 241.646 42.92 244.142 34.344H252.206C254.702 42.92 257.422 51.24 260.366 59.304C263.31 67.304 266.062 74.664 268.622 81.384C269.646 77.8 270.67 73.864 271.694 69.576C272.718 65.288 273.71 60.808 274.67 56.136C275.694 51.4 276.686 46.536 277.646 41.544C278.606 36.488 279.534 31.464 280.43 26.472H289.934C287.63 39.272 285.166 51.112 282.542 61.992C279.982 72.872 277.038 83.208 273.71 93H264.398C261.582 86.088 258.83 78.984 256.142 71.688C253.454 64.392 250.766 56.456 248.078 47.88ZM352.925 83.784C352.285 82.248 351.421 80.296 350.333 77.928C349.309 75.56 348.189 73 346.973 70.248C345.757 67.496 344.445 64.68 343.036 61.8C341.693 58.856 340.413 56.104 339.197 53.544C337.981 50.92 336.829 48.584 335.741 46.536C334.717 44.488 333.885 42.92 333.245 41.832C332.541 49.384 331.965 57.576 331.517 66.408C331.069 75.176 330.685 84.04 330.365 93H321.245C321.501 87.24 321.789 81.448 322.109 75.624C322.429 69.736 322.781 63.976 323.165 58.344C323.613 52.648 324.061 47.112 324.509 41.736C325.021 36.36 325.565 31.272 326.141 26.472H334.301C336.029 29.288 337.885 32.616 339.869 36.456C341.853 40.296 343.837 44.328 345.821 48.552C347.805 52.712 349.725 56.904 351.581 61.128C353.437 65.288 355.133 69.096 356.669 72.552C358.205 69.096 359.901 65.288 361.757 61.128C363.613 56.904 365.533 52.712 367.517 48.552C369.501 44.328 371.485 40.296 373.469 36.456C375.453 32.616 377.309 29.288 379.037 26.472H387.197C389.373 47.912 391.005 70.088 392.093 93H382.973C382.653 84.04 382.269 75.176 381.821 66.408C381.373 57.576 380.797 49.384 380.093 41.832C379.453 42.92 378.589 44.488 377.501 46.536C376.477 48.584 375.357 50.92 374.141 53.544C372.925 56.104 371.613 58.856 370.205 61.8C368.861 64.68 367.581 67.496 366.365 70.248C365.149 73 363.997 75.56 362.909 77.928C361.885 80.296 361.053 82.248 360.413 83.784H352.925ZM404.006 59.688C404.006 53.992 404.838 48.968 406.502 44.616C408.23 40.264 410.534 36.648 413.414 33.768C416.358 30.824 419.75 28.616 423.59 27.144C427.494 25.672 431.622 24.936 435.974 24.936C440.262 24.936 444.294 25.672 448.07 27.144C451.91 28.616 455.27 30.824 458.15 33.768C461.03 36.648 463.302 40.264 464.966 44.616C466.694 48.968 467.558 53.992 467.558 59.688C467.558 65.384 466.694 70.408 464.966 74.76C463.302 79.112 461.03 82.76 458.15 85.704C455.27 88.584 451.91 90.76 448.07 92.232C444.294 93.704 440.262 94.44 435.974 94.44C431.622 94.44 427.494 93.704 423.59 92.232C419.75 90.76 416.358 88.584 413.414 85.704C410.534 82.76 408.23 79.112 406.502 74.76C404.838 70.408 404.006 65.384 404.006 59.688ZM413.798 59.688C413.798 63.72 414.31 67.4 415.334 70.728C416.358 73.992 417.798 76.776 419.654 79.08C421.574 81.384 423.878 83.176 426.566 84.456C429.318 85.672 432.39 86.28 435.782 86.28C439.174 86.28 442.214 85.672 444.902 84.456C447.59 83.176 449.862 81.384 451.718 79.08C453.638 76.776 455.11 73.992 456.134 70.728C457.158 67.4 457.67 63.72 457.67 59.688C457.67 55.656 457.158 52.008 456.134 48.744C455.11 45.416 453.638 42.6 451.718 40.296C449.862 37.992 447.59 36.232 444.902 35.016C442.214 33.736 439.174 33.096 435.782 33.096C432.39 33.096 429.318 33.736 426.566 35.016C423.878 36.232 421.574 37.992 419.654 40.296C417.798 42.6 416.358 45.416 415.334 48.744C414.31 52.008 413.798 55.656 413.798 59.688ZM513.956 65.16C514.98 66.44 516.26 68.136 517.796 70.248C519.396 72.296 521.028 74.6 522.692 77.16C524.356 79.656 525.988 82.28 527.588 85.032C529.252 87.784 530.66 90.44 531.812 93H521.636C520.356 90.568 518.948 88.104 517.412 85.608C515.94 83.112 514.436 80.744 512.9 78.504C511.364 76.2 509.828 74.056 508.292 72.072C506.82 70.088 505.476 68.36 504.26 66.888C503.428 66.952 502.564 66.984 501.668 66.984C500.836 66.984 499.972 66.984 499.076 66.984H490.724V93H481.412V27.432C484.036 26.792 486.948 26.376 490.148 26.184C493.412 25.928 496.388 25.8 499.076 25.8C508.42 25.8 515.524 27.56 520.388 31.08C525.316 34.6 527.78 39.848 527.78 46.824C527.78 51.24 526.596 55.016 524.228 58.152C521.924 61.288 518.5 63.624 513.956 65.16ZM499.844 33.96C495.876 33.96 492.836 34.056 490.724 34.248V59.304H497.348C500.548 59.304 503.428 59.144 505.988 58.824C508.548 58.504 510.692 57.896 512.42 57C514.212 56.104 515.588 54.856 516.548 53.256C517.508 51.592 517.988 49.416 517.988 46.728C517.988 44.232 517.508 42.152 516.548 40.488C515.588 38.824 514.276 37.512 512.612 36.552C511.012 35.592 509.092 34.92 506.852 34.536C504.676 34.152 502.34 33.96 499.844 33.96ZM541.787 93V26.472H582.395V34.44H551.099V54.216H578.939V61.992H551.099V85.032H584.795V93H541.787ZM663.298 93C662.21 90.12 661.186 87.304 660.226 84.552C659.266 81.736 658.274 78.888 657.25 76.008H627.106L621.058 93H611.362C613.922 85.96 616.322 79.464 618.562 73.512C620.802 67.496 622.978 61.8 625.09 56.424C627.266 51.048 629.41 45.928 631.522 41.064C633.634 36.136 635.842 31.272 638.146 26.472H646.69C648.994 31.272 651.202 36.136 653.314 41.064C655.426 45.928 657.538 51.048 659.65 56.424C661.826 61.8 664.034 67.496 666.274 73.512C668.514 79.464 670.914 85.96 673.474 93H663.298ZM654.562 68.328C652.514 62.76 650.466 57.384 648.418 52.2C646.434 46.952 644.354 41.928 642.178 37.128C639.938 41.928 637.794 46.952 635.746 52.2C633.762 57.384 631.778 62.76 629.794 68.328H654.562ZM700.458 93.576C699.114 93.576 697.642 93.544 696.042 93.48C694.506 93.416 692.938 93.32 691.338 93.192C689.802 93.064 688.266 92.904 686.73 92.712C685.194 92.52 683.786 92.264 682.506 91.944V27.432C683.786 27.112 685.194 26.856 686.73 26.664C688.266 26.472 689.802 26.312 691.338 26.184C692.938 26.056 694.506 25.96 696.042 25.896C697.578 25.832 699.018 25.8 700.362 25.8C704.202 25.8 707.786 26.088 711.114 26.664C714.506 27.24 717.418 28.232 719.85 29.64C722.346 30.984 724.298 32.776 725.706 35.016C727.114 37.256 727.818 40.008 727.818 43.272C727.818 46.92 726.954 49.928 725.226 52.296C723.498 54.6 721.194 56.328 718.314 57.48C722.218 58.632 725.322 60.456 727.626 62.952C729.93 65.448 731.082 68.968 731.082 73.512C731.082 80.168 728.618 85.192 723.69 88.584C718.826 91.912 711.082 93.576 700.458 93.576ZM691.722 61.992V85.416C692.426 85.48 693.258 85.544 694.218 85.608C695.05 85.672 696.01 85.736 697.098 85.8C698.25 85.8 699.562 85.8 701.034 85.8C703.786 85.8 706.378 85.64 708.81 85.32C711.306 84.936 713.482 84.296 715.338 83.4C717.194 82.504 718.666 81.256 719.754 79.656C720.906 78.056 721.482 76.04 721.482 73.608C721.482 71.432 721.066 69.608 720.234 68.136C719.402 66.6 718.186 65.384 716.586 64.488C715.05 63.592 713.194 62.952 711.018 62.568C708.842 62.184 706.41 61.992 703.722 61.992H691.722ZM691.722 54.504H701.514C703.818 54.504 705.994 54.344 708.042 54.024C710.09 53.704 711.85 53.128 713.322 52.296C714.858 51.464 716.042 50.376 716.874 49.032C717.77 47.688 718.218 45.992 718.218 43.944C718.218 42.024 717.77 40.424 716.874 39.144C715.978 37.8 714.73 36.744 713.13 35.976C711.594 35.144 709.77 34.536 707.658 34.152C705.546 33.768 703.306 33.576 700.938 33.576C698.57 33.576 696.714 33.608 695.37 33.672C694.026 33.736 692.81 33.832 691.722 33.96V54.504ZM741.506 59.688C741.506 53.992 742.338 48.968 744.002 44.616C745.73 40.264 748.034 36.648 750.914 33.768C753.858 30.824 757.25 28.616 761.09 27.144C764.994 25.672 769.122 24.936 773.474 24.936C777.762 24.936 781.794 25.672 785.57 27.144C789.41 28.616 792.77 30.824 795.65 33.768C798.53 36.648 800.802 40.264 802.466 44.616C804.194 48.968 805.058 53.992 805.058 59.688C805.058 65.384 804.194 70.408 802.466 74.76C800.802 79.112 798.53 82.76 795.65 85.704C792.77 88.584 789.41 90.76 785.57 92.232C781.794 93.704 777.762 94.44 773.474 94.44C769.122 94.44 764.994 93.704 761.09 92.232C757.25 90.76 753.858 88.584 750.914 85.704C748.034 82.76 745.73 79.112 744.002 74.76C742.338 70.408 741.506 65.384 741.506 59.688ZM751.298 59.688C751.298 63.72 751.81 67.4 752.834 70.728C753.858 73.992 755.298 76.776 757.154 79.08C759.074 81.384 761.378 83.176 764.066 84.456C766.818 85.672 769.89 86.28 773.282 86.28C776.674 86.28 779.714 85.672 782.402 84.456C785.09 83.176 787.362 81.384 789.218 79.08C791.138 76.776 792.61 73.992 793.634 70.728C794.658 67.4 795.17 63.72 795.17 59.688C795.17 55.656 794.658 52.008 793.634 48.744C792.61 45.416 791.138 42.6 789.218 40.296C787.362 37.992 785.09 36.232 782.402 35.016C779.714 33.736 776.674 33.096 773.282 33.096C769.89 33.096 766.818 33.736 764.066 35.016C761.378 36.232 759.074 37.992 757.154 40.296C755.298 42.6 753.858 45.416 752.834 48.744C751.81 52.008 751.298 55.656 751.298 59.688ZM843.68 94.44C839.328 94.44 835.552 93.768 832.352 92.424C829.152 91.08 826.528 89.256 824.48 86.952C822.432 84.584 820.896 81.8 819.872 78.6C818.912 75.4 818.432 71.944 818.432 68.232V26.472H827.744V67.176C827.744 73.832 829.216 78.664 832.16 81.672C835.104 84.68 838.944 86.184 843.68 86.184C846.048 86.184 848.192 85.832 850.112 85.128C852.096 84.36 853.792 83.208 855.2 81.672C856.608 80.136 857.696 78.184 858.464 75.816C859.232 73.384 859.616 70.504 859.616 67.176V26.472H868.928V68.232C868.928 71.944 868.416 75.4 867.392 78.6C866.432 81.8 864.896 84.584 862.784 86.952C860.736 89.256 858.112 91.08 854.912 92.424C851.776 93.768 848.032 94.44 843.68 94.44ZM929.454 26.472V34.536H908.526V93H899.214V34.536H878.286V26.472H929.454ZM991.362 83.784C990.722 82.248 989.858 80.296 988.77 77.928C987.746 75.56 986.626 73 985.41 70.248C984.194 67.496 982.882 64.68 981.474 61.8C980.13 58.856 978.85 56.104 977.634 53.544C976.418 50.92 975.266 48.584 974.178 46.536C973.154 44.488 972.322 42.92 971.682 41.832C970.978 49.384 970.402 57.576 969.954 66.408C969.506 75.176 969.122 84.04 968.802 93H959.682C959.938 87.24 960.226 81.448 960.546 75.624C960.866 69.736 961.218 63.976 961.602 58.344C962.05 52.648 962.498 47.112 962.946 41.736C963.458 36.36 964.002 31.272 964.578 26.472H972.738C974.466 29.288 976.322 32.616 978.306 36.456C980.29 40.296 982.274 44.328 984.258 48.552C986.242 52.712 988.162 56.904 990.018 61.128C991.874 65.288 993.57 69.096 995.106 72.552C996.642 69.096 998.338 65.288 1000.19 61.128C1002.05 56.904 1003.97 52.712 1005.95 48.552C1007.94 44.328 1009.92 40.296 1011.91 36.456C1013.89 32.616 1015.75 29.288 1017.47 26.472H1025.63C1027.81 47.912 1029.44 70.088 1030.53 93H1021.41C1021.09 84.04 1020.71 75.176 1020.26 66.408C1019.81 57.576 1019.23 49.384 1018.53 41.832C1017.89 42.92 1017.03 44.488 1015.94 46.536C1014.91 48.584 1013.79 50.92 1012.58 53.544C1011.36 56.104 1010.05 58.856 1008.64 61.8C1007.3 64.68 1006.02 67.496 1004.8 70.248C1003.59 73 1002.43 75.56 1001.35 77.928C1000.32 80.296 999.49 82.248 998.85 83.784H991.362ZM1045.13 93V26.472H1085.74V34.44H1054.44V54.216H1082.28V61.992H1054.44V85.032H1088.14V93H1045.13Z" fill="black"/>
<line x1="1" y1="2" x2="1" y2="112" stroke="black" stroke-width="2"/>
<line y1="1" x2="1092" y2="1" stroke="black" stroke-width="2"/>
<line x1="1093" y1="2" x2="1093" y2="112" stroke="black" stroke-width="2"/>
<line y1="111" x2="1092" y2="111" stroke="black" stroke-width="2"/>
</svg>
