<svg width="1091" height="136" viewBox="0 0 1091 136" fill="none" xmlns="http://www.w3.org/2000/svg">
<path d="M336.983 25.8C346.327 25.8 353.495 27.592 358.487 31.176C363.543 34.696 366.071 39.976 366.071 47.016C366.071 50.856 365.367 54.152 363.958 56.904C362.615 59.592 360.631 61.8 358.007 63.528C355.447 65.192 352.311 66.408 348.599 67.176C344.887 67.944 340.695 68.328 336.023 68.328H328.631V93H319.319V27.432C321.943 26.792 324.855 26.376 328.055 26.184C331.319 25.928 334.295 25.8 336.983 25.8ZM337.751 33.96C333.783 33.96 330.743 34.056 328.631 34.248V60.36H335.639C338.839 60.36 341.719 60.168 344.279 59.784C346.839 59.336 348.983 58.632 350.711 57.672C352.503 56.648 353.879 55.272 354.839 53.544C355.799 51.816 356.279 49.608 356.279 46.92C356.279 44.36 355.767 42.248 354.743 40.584C353.783 38.92 352.439 37.608 350.711 36.648C349.047 35.624 347.095 34.92 344.855 34.536C342.615 34.152 340.247 33.96 337.751 33.96ZM410.269 65.16C411.293 66.44 412.573 68.136 414.109 70.248C415.709 72.296 417.341 74.6 419.005 77.16C420.669 79.656 422.301 82.28 423.901 85.032C425.565 87.784 426.973 90.44 428.125 93H417.949C416.669 90.568 415.261 88.104 413.725 85.608C412.253 83.112 410.749 80.744 409.213 78.504C407.677 76.2 406.141 74.056 404.605 72.072C403.133 70.088 401.789 68.36 400.573 66.888C399.741 66.952 398.877 66.984 397.981 66.984C397.149 66.984 396.285 66.984 395.389 66.984H387.037V93H377.725V27.432C380.349 26.792 383.261 26.376 386.461 26.184C389.725 25.928 392.701 25.8 395.389 25.8C404.733 25.8 411.837 27.56 416.701 31.08C421.629 34.6 424.093 39.848 424.093 46.824C424.093 51.24 422.909 55.016 420.541 58.152C418.237 61.288 414.813 63.624 410.269 65.16ZM396.157 33.96C392.189 33.96 389.149 34.056 387.037 34.248V59.304H393.661C396.861 59.304 399.741 59.144 402.301 58.824C404.861 58.504 407.005 57.896 408.733 57C410.525 56.104 411.901 54.856 412.861 53.256C413.821 51.592 414.301 49.416 414.301 46.728C414.301 44.232 413.821 42.152 412.861 40.488C411.901 38.824 410.589 37.512 408.925 36.552C407.325 35.592 405.405 34.92 403.165 34.536C400.989 34.152 398.653 33.96 396.157 33.96ZM434.381 59.688C434.381 53.992 435.213 48.968 436.877 44.616C438.605 40.264 440.909 36.648 443.789 33.768C446.733 30.824 450.125 28.616 453.965 27.144C457.869 25.672 461.997 24.936 466.349 24.936C470.637 24.936 474.669 25.672 478.445 27.144C482.285 28.616 485.645 30.824 488.525 33.768C491.405 36.648 493.677 40.264 495.341 44.616C497.069 48.968 497.933 53.992 497.933 59.688C497.933 65.384 497.069 70.408 495.341 74.76C493.677 79.112 491.405 82.76 488.525 85.704C485.645 88.584 482.285 90.76 478.445 92.232C474.669 93.704 470.637 94.44 466.349 94.44C461.997 94.44 457.869 93.704 453.965 92.232C450.125 90.76 446.733 88.584 443.789 85.704C440.909 82.76 438.605 79.112 436.877 74.76C435.213 70.408 434.381 65.384 434.381 59.688ZM444.173 59.688C444.173 63.72 444.685 67.4 445.709 70.728C446.733 73.992 448.173 76.776 450.029 79.08C451.949 81.384 454.253 83.176 456.941 84.456C459.693 85.672 462.765 86.28 466.157 86.28C469.549 86.28 472.589 85.672 475.277 84.456C477.965 83.176 480.237 81.384 482.093 79.08C484.013 76.776 485.485 73.992 486.509 70.728C487.533 67.4 488.045 63.72 488.045 59.688C488.045 55.656 487.533 52.008 486.509 48.744C485.485 45.416 484.013 42.6 482.093 40.296C480.237 37.992 477.965 36.232 475.277 35.016C472.589 33.736 469.549 33.096 466.157 33.096C462.765 33.096 459.693 33.736 456.941 35.016C454.253 36.232 451.949 37.992 450.029 40.296C448.173 42.6 446.733 45.416 445.709 48.744C444.685 52.008 444.173 55.656 444.173 59.688ZM541.318 71.592C541.318 74.792 540.966 77.768 540.262 80.52C539.622 83.272 538.438 85.704 536.71 87.816C535.046 89.864 532.774 91.496 529.894 92.712C527.078 93.864 523.526 94.44 519.238 94.44C517.062 94.44 515.046 94.248 513.19 93.864C511.398 93.544 509.766 93.128 508.294 92.616C506.822 92.04 505.542 91.464 504.454 90.888C503.366 90.248 502.502 89.64 501.862 89.064L505.51 81.672C506.854 82.632 508.582 83.656 510.694 84.744C512.87 85.768 515.558 86.28 518.758 86.28C523.366 86.28 526.726 85.128 528.838 82.824C530.95 80.456 532.006 76.424 532.006 70.728V26.472H541.318V71.592ZM557.35 93V26.472H597.958V34.44H566.662V54.216H594.502V61.992H566.662V85.032H600.358V93H557.35ZM638.083 94.44C633.411 94.44 629.155 93.672 625.315 92.136C621.475 90.6 618.179 88.36 615.427 85.416C612.675 82.472 610.531 78.856 608.995 74.568C607.523 70.216 606.787 65.256 606.787 59.688C606.787 54.12 607.619 49.192 609.283 44.904C611.011 40.552 613.315 36.904 616.195 33.96C619.075 31.016 622.435 28.776 626.275 27.24C630.115 25.704 634.211 24.936 638.563 24.936C641.315 24.936 643.779 25.128 645.955 25.512C648.195 25.896 650.115 26.344 651.715 26.856C653.379 27.368 654.723 27.88 655.747 28.392C656.771 28.904 657.475 29.288 657.859 29.544L655.171 37.224C654.595 36.84 653.763 36.424 652.675 35.976C651.587 35.528 650.339 35.08 648.931 34.632C647.587 34.184 646.083 33.832 644.419 33.576C642.819 33.256 641.187 33.096 639.523 33.096C636.003 33.096 632.835 33.704 630.019 34.92C627.203 36.136 624.803 37.896 622.819 40.2C620.835 42.504 619.299 45.32 618.211 48.648C617.187 51.912 616.675 55.592 616.675 59.688C616.675 63.656 617.123 67.272 618.019 70.536C618.979 73.8 620.387 76.616 622.243 78.984C624.099 81.288 626.403 83.08 629.155 84.36C631.971 85.64 635.235 86.28 638.947 86.28C643.235 86.28 646.787 85.832 649.603 84.936C652.419 84.04 654.531 83.24 655.939 82.536L658.339 90.216C657.891 90.536 657.091 90.952 655.939 91.464C654.787 91.912 653.347 92.36 651.619 92.808C649.891 93.256 647.875 93.64 645.571 93.96C643.267 94.28 640.771 94.44 638.083 94.44ZM715.048 26.472V34.536H694.12V93H684.808V34.536H663.88V26.472H715.048ZM740.337 86.376C750.065 86.376 754.929 83.048 754.929 76.392C754.929 74.344 754.481 72.616 753.585 71.208C752.753 69.736 751.601 68.488 750.129 67.464C748.657 66.376 746.961 65.448 745.041 64.68C743.185 63.912 741.201 63.144 739.089 62.376C736.657 61.544 734.353 60.616 732.177 59.592C730.001 58.504 728.113 57.256 726.513 55.848C724.913 54.376 723.633 52.648 722.673 50.664C721.777 48.68 721.329 46.28 721.329 43.464C721.329 37.64 723.313 33.096 727.281 29.832C731.249 26.568 736.721 24.936 743.697 24.936C747.729 24.936 751.377 25.384 754.641 26.28C757.969 27.112 760.401 28.04 761.937 29.064L758.961 36.648C757.617 35.816 755.601 35.016 752.913 34.248C750.289 33.416 747.217 33 743.697 33C741.905 33 740.241 33.192 738.705 33.576C737.169 33.96 735.825 34.536 734.673 35.304C733.521 36.072 732.593 37.064 731.889 38.28C731.249 39.432 730.929 40.808 730.929 42.408C730.929 44.2 731.281 45.704 731.985 46.92C732.689 48.136 733.681 49.224 734.961 50.184C736.241 51.08 737.713 51.912 739.377 52.68C741.105 53.448 742.993 54.216 745.041 54.984C747.921 56.136 750.545 57.288 752.913 58.44C755.345 59.592 757.425 60.968 759.153 62.568C760.945 64.168 762.321 66.088 763.281 68.328C764.241 70.504 764.721 73.16 764.721 76.296C764.721 82.12 762.577 86.6 758.289 89.736C754.065 92.872 748.081 94.44 740.337 94.44C737.713 94.44 735.281 94.248 733.041 93.864C730.865 93.544 728.913 93.16 727.185 92.712C725.457 92.2 723.953 91.688 722.673 91.176C721.457 90.6 720.497 90.12 719.793 89.736L722.577 82.056C724.049 82.888 726.289 83.816 729.297 84.84C732.305 85.864 735.985 86.376 740.337 86.376Z" fill="black"/>
<line x1="1" y1="2" x2="1" y2="136" stroke="black" stroke-width="2"/>
<line x1="1090" y1="2" x2="1090" y2="136" stroke="black" stroke-width="2"/>
<line y1="135" x2="1089" y2="135" stroke="black" stroke-width="2"/>
<line y1="1" x2="1089" y2="1" stroke="black" stroke-width="2"/>
</svg>
